<svg width="2254" height="612" viewBox="0 0 2254 612" fill="none" xmlns="http://www.w3.org/2000/svg">
<path d="M186.443 207.195L92.9432 308.195C91.3888 310.541 91.1946 311.851 92.9432 314.195L187.443 416.195V449.695H136.443L34.4432 335.195C21.5302 313.376 22.1785 302.418 34.4432 284.695L139.943 170.695H186.443V207.195Z" fill="#153D73" stroke="white"/>
<path d="M406.943 412.695L500.443 311.695C501.998 309.35 502.192 308.04 500.443 305.695L405.943 203.695V170.195H456.943L558.943 284.695C571.856 306.515 571.208 317.473 558.943 335.195L453.443 449.195H406.943V412.695Z" fill="#153D73" stroke="white"/>
<path d="M394.097 106.195H339.097L197.943 514.195H254.097L394.097 106.195Z" fill="#153D73" stroke="white"/>
<path d="M662.943 137.695H974.443V215.859H853.943L741.943 151.195V213.695H687.443C670.181 215.53 664.832 221.124 662.943 238.695C664.251 254.567 669.209 260.591 687.443 264.695H741.943V338.695H662.943C604.077 318.585 587.574 295.675 583.943 236.695C591.176 175.013 610.13 154.952 662.943 137.695Z" fill="url(#paint0_linear_9_11)"/>
<path d="M741.943 452.695V393.695H589.943V466.695H898.943C968.943 446.695 992.83 406.208 974.443 318.461L741.943 452.695Z" fill="url(#paint1_linear_9_11)"/>
<path d="M662.943 137.695H974.443V215.859H853.943L741.943 151.195V213.695H687.443C670.181 215.53 664.832 221.124 662.943 238.695C664.251 254.567 669.209 260.591 687.443 264.695H741.943V338.695H662.943C604.077 318.585 587.574 295.675 583.943 236.695C591.176 175.013 610.13 154.952 662.943 137.695Z" stroke="white"/>
<path d="M741.943 452.695V393.695H589.943V466.695H898.943C968.943 446.695 992.83 406.208 974.443 318.461L741.943 452.695Z" stroke="white"/>
<path d="M761.443 400.695V201.695C760.943 190.195 771.443 185.695 784.943 194.695L935.943 281.695C954.449 291.37 954.876 307.897 935.943 318.695L787.943 408.195C775.943 418.695 761.443 415.195 761.443 400.695Z" fill="url(#paint2_linear_9_11)" stroke="white"/>
<path d="M1005.94 212.695V138.195H1242.94C1355.94 136.695 1378.94 325.695 1242.94 340.695H1113.44C1092.89 343.871 1085.62 352.546 1088.44 393.695H1333.44V465.695H1005.94V354.695C1005.94 310.695 1052.94 262.695 1093.94 264.695H1225.44C1259.94 264.695 1263.44 214.695 1225.44 212.695H1005.94Z" fill="url(#paint3_linear_9_11)"/>
<path d="M1005.94 137.695V212.695H1225.44C1263.44 214.695 1259.94 264.695 1225.44 264.695H1093.94C1052.94 262.695 1005.94 310.695 1005.94 354.695V465.695H1333.44V393.695H1088.44C1085.62 352.546 1092.89 343.871 1113.44 340.695H1242.94C1378.94 325.695 1355.94 136.695 1242.94 138.195H1005.94V137.695Z" stroke="white"/>
<path d="M1359.94 380.695V139.195H1438.94V362.195C1438.94 379.195 1455.44 392.195 1472.94 392.195H1669.94V466.695H1459.94C1422.94 468.695 1365.44 437.695 1359.94 380.695Z" fill="#56ADD9" stroke="white"/>
<path d="M1461.94 376.195V245.195L1710.94 242.195C1720.4 242.144 1723.57 239.874 1723.44 229.695V171.195L1884.94 313.195L1723.44 452.695V387.695C1724.44 377.195 1719.08 375.761 1710.94 376.195H1461.94Z" fill="url(#paint4_linear_9_11)" stroke="white"/>
<path fill-rule="evenodd" clip-rule="evenodd" d="M1777.94 434.695C1924.94 547.695 2073.44 429.195 2073.44 307.195C2073.44 180.195 1913.44 66.1959 1776.44 192.196L1832.44 240.195C1850.73 245.385 1862.63 246.774 1886.94 247.695V294.195L1905.44 312.695L1886.94 336.195V368.695C1864.2 369.7 1852.42 372.414 1832.94 380.695L1777.94 434.695ZM1816.94 207.695C1823.33 193.841 1828.04 186.656 1838.44 175.195C1822.93 180.711 1814.57 185.922 1800.44 200.195C1805.04 205.381 1808.64 206.886 1816.94 207.695ZM1889.44 223.695V162.696C1865.5 171.988 1854.05 183.921 1836.44 214.695C1853.87 222.342 1865.49 224.347 1889.44 223.695ZM1912.44 223.695V162.696C1935.94 175.672 1946.83 186.66 1962.44 214.695C1944.52 221.085 1933.55 223.055 1912.44 223.695ZM2003.44 200.195L1984.44 207.695C1976.97 192.877 1971.96 186.122 1962.44 175.195C1979.32 180.537 1988.33 185.858 2003.44 200.195ZM1981.94 296.695C1980.25 270.794 1977.14 258.261 1967.94 239.695C1949.21 244.346 1937.28 246.225 1912.44 247.695V294.195C1937.08 296.596 1952.47 297.043 1981.94 296.695ZM2049.44 296.695C2043.57 262.535 2037.56 245.473 2019.44 220.695C2008.95 227.536 2002.66 230.343 1990.94 234.195C2000.21 257.757 2002.46 271.518 2003.44 296.695H2049.44ZM1910.94 367.195V319.195C1938.23 319.873 1953.78 319.932 1981.94 319.195C1981.18 341.518 1978.96 353.997 1970.94 376.195C1950.45 369.539 1937.45 367.407 1910.94 367.195ZM2047.94 319.195H2004.94C2003 348.276 2000.18 362.708 1991.44 382.195C2003.3 386.132 2009.12 389.443 2018.94 397.195C2039.6 371.508 2044.77 353.827 2047.94 319.195ZM1963.94 437.195C1972.28 426.253 1976.74 419.596 1983.44 404.695C1993.02 406.412 1997.63 408.407 2004.94 413.195C1990.4 425.612 1981.47 430.958 1963.94 437.195ZM1910.94 452.695C1935.18 437.237 1946.1 425.374 1960.94 398.695C1942.75 392.65 1931.83 391.157 1910.94 392.195V452.695ZM1886.94 452.695V392.195C1866.51 390.72 1856.4 392.244 1840.44 398.695C1848.76 426.41 1860.04 437.489 1886.94 452.695ZM1816.94 410.195C1821.92 422.258 1826.58 428.453 1835.94 439.195C1834.52 438.714 1833.16 438.262 1831.86 437.828L1831.84 437.823L1831.84 437.822C1820.99 434.22 1813.79 431.831 1804.94 423.195C1808.2 418.06 1812.02 413.635 1816.94 410.195Z" fill="url(#paint5_linear_9_11)"/>
<path d="M1831.84 437.823L1831.84 437.822C1820.99 434.22 1813.79 431.831 1804.94 423.195C1808.2 418.06 1812.02 413.635 1816.94 410.195C1821.92 422.258 1826.58 428.453 1835.94 439.195C1834.52 438.714 1833.16 438.262 1831.86 437.828M1831.84 437.823L1831.86 437.828M1831.84 437.823C1831.85 437.825 1831.85 437.827 1831.86 437.828M1777.94 434.695C1924.94 547.695 2073.44 429.195 2073.44 307.195C2073.44 180.195 1913.44 66.1959 1776.44 192.196L1832.44 240.195C1850.73 245.385 1862.63 246.774 1886.94 247.695V294.195L1905.44 312.695L1886.94 336.195V368.695C1864.2 369.7 1852.42 372.414 1832.94 380.695L1777.94 434.695ZM1838.44 175.195C1828.04 186.656 1823.33 193.841 1816.94 207.695C1808.64 206.886 1805.04 205.381 1800.44 200.195C1814.57 185.922 1822.93 180.711 1838.44 175.195ZM1889.44 162.696V223.695C1865.49 224.347 1853.87 222.342 1836.44 214.695C1854.05 183.921 1865.5 171.988 1889.44 162.696ZM1912.44 162.696V223.695C1933.55 223.055 1944.52 221.085 1962.44 214.695C1946.83 186.66 1935.94 175.672 1912.44 162.696ZM1984.44 207.695L2003.44 200.195C1988.33 185.858 1979.32 180.537 1962.44 175.195C1971.96 186.122 1976.97 192.877 1984.44 207.695ZM1967.94 239.695C1977.14 258.261 1980.25 270.794 1981.94 296.695C1952.47 297.043 1937.08 296.596 1912.44 294.195V247.695C1937.28 246.225 1949.21 244.346 1967.94 239.695ZM2019.44 220.695C2037.56 245.473 2043.57 262.535 2049.44 296.695H2003.44C2002.46 271.518 2000.21 257.757 1990.94 234.195C2002.66 230.343 2008.95 227.536 2019.44 220.695ZM1910.94 319.195V367.195C1937.45 367.407 1950.45 369.539 1970.94 376.195C1978.96 353.997 1981.18 341.518 1981.94 319.195C1953.78 319.932 1938.23 319.873 1910.94 319.195ZM2004.94 319.195H2047.94C2044.77 353.827 2039.6 371.508 2018.94 397.195C2009.12 389.443 2003.3 386.132 1991.44 382.195C2000.18 362.708 2003 348.276 2004.94 319.195ZM1983.44 404.695C1976.74 419.596 1972.28 426.253 1963.94 437.195C1981.47 430.958 1990.4 425.612 2004.94 413.195C1997.63 408.407 1993.02 406.412 1983.44 404.695ZM1960.94 398.695C1946.1 425.374 1935.18 437.237 1910.94 452.695V392.195C1931.83 391.157 1942.75 392.65 1960.94 398.695ZM1886.94 392.195V452.695C1860.04 437.489 1848.76 426.41 1840.44 398.695C1856.4 392.244 1866.51 390.72 1886.94 392.195Z" stroke="white"/>
<rect x="2113.44" y="294.695" width="115" height="27" rx="13.5" fill="#7FB64A" stroke="white"/>
<rect x="2088.94" y="391.884" width="115" height="27" rx="13.5" transform="rotate(32 2088.94 391.884)" fill="#11FF77" fill-opacity="0.266667" stroke="white"/>
<rect x="2020.01" y="472.878" width="115" height="27" rx="13.5" transform="rotate(60 2020.01 472.878)" fill="#11FF77" fill-opacity="0.266667" stroke="white"/>
<rect x="2075.19" y="39.183" width="115" height="27" rx="13.5" transform="rotate(120 2075.19 39.183)" fill="#7FB64A" stroke="white"/>
<rect x="2074.63" y="198.378" width="115" height="27" rx="13.5" transform="rotate(-30 2074.63 198.378)" fill="#7FB64A" stroke="white"/>
<defs>
<linearGradient id="paint0_linear_9_11" x1="980.402" y1="302.195" x2="583.943" y2="302.195" gradientUnits="userSpaceOnUse">
<stop stop-color="#3986C4"/>
<stop offset="1" stop-color="#091A31"/>
</linearGradient>
<linearGradient id="paint1_linear_9_11" x1="980.402" y1="302.195" x2="583.943" y2="302.195" gradientUnits="userSpaceOnUse">
<stop stop-color="#3986C4"/>
<stop offset="1" stop-color="#091A31"/>
</linearGradient>
<linearGradient id="paint2_linear_9_11" x1="805.943" y1="302.195" x2="949.983" y2="302.095" gradientUnits="userSpaceOnUse">
<stop stop-color="#0E6228"/>
<stop offset="0.6" stop-color="#1F7439"/>
</linearGradient>
<linearGradient id="paint3_linear_9_11" x1="1336.52" y1="301.695" x2="1005.94" y2="301.695" gradientUnits="userSpaceOnUse">
<stop stop-color="#56ADD9"/>
<stop offset="1" stop-color="#3986C4"/>
</linearGradient>
<linearGradient id="paint4_linear_9_11" x1="1884.94" y1="311.945" x2="1461.94" y2="311.945" gradientUnits="userSpaceOnUse">
<stop stop-color="#7FB64A"/>
<stop offset="1" stop-color="#1F7439"/>
</linearGradient>
<linearGradient id="paint5_linear_9_11" x1="1924.94" y1="137.441" x2="1924.94" y2="480.178" gradientUnits="userSpaceOnUse">
<stop stop-color="#7FB64A"/>
<stop offset="1" stop-color="#11FF77" stop-opacity="0.266667"/>
</linearGradient>
</defs>
</svg>
